<svg xmlns="http://www.w3.org/2000/svg" viewBox="-1152 -997.661 2304 1995.323"><defs><linearGradient id="a" x1="-320" x2="128" y1="-554.256" y2="221.703" gradientUnits="userSpaceOnUse"><stop offset="0%" stop-color="#3e5993"/><stop offset="25%" stop-color="#4564a5"/><stop offset="100%" stop-color="#4d6fb7"/></linearGradient><linearGradient id="b" x1="-320" x2="128" y1="-554.256" y2="221.703" gradientUnits="userSpaceOnUse"><stop offset="0%" stop-color="#6d9bbc"/><stop offset="25%" stop-color="#72a9cf"/><stop offset="100%" stop-color="#77b6e1"/></linearGradient></defs><path fill="url(#a)" d="m-304-304.84 128-221.703 560 969.948H128L0 221.703l-128 221.702h-128l-64-110.851L-128 0z" transform="translate(-320 554.256)"/><path fill="url(#b)" d="m-304-304.84 128-221.703 560 969.948H128L0 221.703l-128 221.702h-128l-64-110.851L-128 0z" transform="rotate(60 -320 -554.256)"/><path fill="url(#a)" d="m-304-304.84 128-221.703 560 969.948H128L0 221.703l-128 221.702h-128l-64-110.851L-128 0z" transform="rotate(120 0 -369.504)"/><path fill="url(#b)" d="m-304-304.84 128-221.703 560 969.948H128L0 221.703l-128 221.702h-128l-64-110.851L-128 0z" transform="matrix(-1 0 0 -1 320 -554.256)"/><path fill="url(#a)" d="m-304-304.84 128-221.703 560 969.948H128L0 221.703l-128 221.702h-128l-64-110.851L-128 0z" transform="rotate(240 320 -184.752)"/><path fill="url(#b)" d="m-304-304.84 128-221.703 560 969.948H128L0 221.703l-128 221.702h-128l-64-110.851L-128 0z" transform="rotate(-60 640 0)"/></svg>